
<svg width="130" height="130" viewBox="0 0 130 130" fill="none" xmlns="http://www.w3.org/2000/svg">
<path fill-rule="evenodd" clip-rule="evenodd" d="M49.9746 104.882C45.1151 108.166 42.6854 109.807 40.6684 109.696C38.9115 109.598 37.2859 108.735 36.2217 107.334C35 105.725 35 102.792 35 96.9276V33.0725C35 27.2077 35 24.2753 36.2217 22.6666C37.2859 21.2653 38.9115 20.4018 40.6684 20.3045C42.6854 20.1929 45.1151 21.8346 49.9747 25.1181L97.2274 57.0456C101.17 59.7098 103.142 61.0419 103.831 62.7154C104.434 64.1789 104.434 65.8212 103.831 67.2847C103.142 68.9583 101.17 70.2904 97.2274 72.9545L49.9746 104.882ZM126 21.0001C128.209 21.0001 130 22.7909 130 25.0001V105C130 107.209 128.209 109 126 109H116.5C114.291 109 112.5 107.209 112.5 105V25.0001C112.5 22.7909 114.291 21.0001 116.5 21.0001H126Z" fill="#53389E"/>
<path fill-rule="evenodd" clip-rule="evenodd" d="M9.35914 108.676C5.3744 111.369 0 108.514 0 103.705V26.2953C0 21.4863 5.37442 18.6314 9.35916 21.3238L66.6421 60.0285C70.1633 62.4077 70.1633 67.5925 66.6421 69.9716L9.35914 108.676ZM91 21.0001C93.2091 21.0001 95 22.7909 95 25.0001V105C95 107.209 93.2091 109 91 109H81.5C79.2909 109 77.5 107.209 77.5 105V25.0001C77.5 22.7909 79.2909 21.0001 81.5 21.0001H91Z" fill="#D6BBFB"/>
</svg>
