<svg xmlns="http://www.w3.org/2000/svg" width="0" height="0"><defs><symbol id="no-mercy" fill="none" viewBox="0 0 130 130"><path fill="#53389E" fill-rule="evenodd" d="M49.975 104.882c-4.86 3.284-7.29 4.925-9.307 4.814a6.003 6.003 0 0 1-4.446-2.362C35 105.725 35 102.792 35 96.928V33.073c0-5.865 0-8.798 1.222-10.406a6 6 0 0 1 4.446-2.363c2.017-.111 4.447 1.53 9.307 4.814l47.252 31.928c3.943 2.664 5.915 3.996 6.604 5.67a5.997 5.997 0 0 1 0 4.569c-.689 1.673-2.661 3.005-6.604 5.67zM126 21a4 4 0 0 1 4 4v80a4 4 0 0 1-4 4h-9.5a4 4 0 0 1-4-4V25a4 4 0 0 1 4-4z" clip-rule="evenodd"/><path fill="#D6BBFB" fill-rule="evenodd" d="M9.36 108.676c-3.986 2.693-9.36-.162-9.36-4.971v-77.41c0-4.809 5.374-7.664 9.36-4.971l57.282 38.704c3.521 2.38 3.521 7.565 0 9.944zM91 21a4 4 0 0 1 4 4v80a4 4 0 0 1-4 4h-9.5a4 4 0 0 1-4-4V25a4 4 0 0 1 4-4z" clip-rule="evenodd"/></symbol><symbol id="icon-hot-dog" viewBox="0 0 24 24"><path fill="currentColor" d="m19.1 9.349-9.74 9.74.01.01 9.74-9.74Z"/><path fill="currentColor" d="m20.276 9.119-.47-.47a3.157 3.157 0 0 0-.03-4.43 3.212 3.212 0 0 0-4.42-.03l-.48-.48a2.3 2.3 0 0 0-3.18 0l-7.98 7.98a2.263 2.263 0 0 0 0 3.18l.48.48a3.145 3.145 0 0 0 .03 4.42 3.089 3.089 0 0 0 2.23.92 3.126 3.126 0 0 0 2.2-.89l.47.47a2.245 2.245 0 0 0 3.18 0l7.97-7.97a2.245 2.245 0 0 0 0-3.18m-15.85 3.27 7.97-7.97a1.243 1.243 0 0 1 1.77 0l.47.47-9.736 9.74-.47-.47a1.249 1.249 0 0 1-.004-1.77m3.52 6.7a2.2 2.2 0 0 1-3.02-.03 2.149 2.149 0 0 1-.03-3.01l11.16-11.16a2.163 2.163 0 0 1 1.49-.6 2.155 2.155 0 0 1 1.55 3.65Zm11.63-7.49-7.98 7.97a1.275 1.275 0 0 1-1.76 0l-.47-.47-.01-.01 9.74-9.74.01.01.47.47a1.268 1.268 0 0 1 0 1.771Z"/><path fill="currentColor" d="M6.57 17.569a.5.5 0 0 1-.354-.854 4.533 4.533 0 0 1 1.357-.967 3.491 3.491 0 0 0 1.1-.778 3.514 3.514 0 0 0 .779-1.1 5.034 5.034 0 0 1 2.324-2.324 3.517 3.517 0 0 0 1.1-.78 3.536 3.536 0 0 0 .78-1.1 4.534 4.534 0 0 1 .97-1.359 4.54 4.54 0 0 1 1.359-.97 3.53 3.53 0 0 0 1.1-.78.5.5 0 1 1 .707.707 4.516 4.516 0 0 1-1.36.969 3.506 3.506 0 0 0-1.1.781 3.535 3.535 0 0 0-.781 1.1 4.516 4.516 0 0 1-.969 1.36 4.5 4.5 0 0 1-1.359.969 4.029 4.029 0 0 0-1.874 1.874 4.5 4.5 0 0 1-.967 1.357 4.524 4.524 0 0 1-1.358.968 3.51 3.51 0 0 0-1.1.777.5.5 0 0 1-.354.15"/></symbol><symbol id="icon-dog" viewBox="0 0 512 512"><path fill="currentColor" d="M325.4 49.03h-1c-1.7.1-3.4.52-4.9 1.25-8 3.79-12.7 13.76-13.8 27.34-1.1 13.57 2 29.58 6.7 40.08 5.7 12.6 17.6 28.6 30.7 39.4 1.9-2.9 4.2-5.4 6.7-7.6-16-18.6-24.3-40.6-29.9-60.21l17.4-4.96c5.6 19.47 13.7 40.07 28.6 55.97 1.7-.7 3.4-1.3 5.2-1.8 5.6-1.8 11.5-3.1 17.3-4-.2-.8-.3-1.7-.5-2.5-3.7-17.2-13-36.69-21.3-49.67-5.6-8.75-14.7-19.4-23.9-26.08-6.5-4.71-12.2-7.19-17.3-7.22M42.93 131.8c-3.7.2-6.9 1.2-9.23 2.8-5.22 3.6-9.25 12-10.07 21.8-.82 9.9 1.7 20.4 5.93 26.3 3.99 5.4 12.79 10.7 21.95 12.8 5.19 1.2 10.28 1.3 14.58.5l13.4 18.1c-1.01 5.6-.61 12.8 1.13 20.4 3.56 15.7 12.61 33.3 20.98 43.9h.1c.7.9 1.5 1.8 2.3 2.8 2.7-4 6.1-7.6 9.9-10.6.4-.3.9-.7 1.3-1l-15.35-21.2 14.55-10.6 16.5 22.7c6.3-2.7 13.1-4.9 20.1-6.7.2 0 .4-.1.6-.1-4.4-6.8-9.1-13.2-13.2-18.5-7.3-9.2-17.9-21-28.1-28.4-5.1-3.6-10.1-6.1-13.95-6.9-1.45-.3-2.72-.4-3.88-.4-.39 0-.77 0-1.14.1h-.12l-11.1-15c1.45-3.5 2.35-7.8 2.53-12.3.36-9.2-2.37-19.1-6.43-24.7v-.1c-3.93-5.6-12.35-11.4-20.99-14-3.32-1.1-6.55-1.6-9.55-1.7h-2.68zm369.57 19c-1.6 0-3.3 0-5 .1-10.1.3-21.6 1.7-31 4.7-6.3 2-11.6 4.7-15.1 7.7-3.4 2.9-5.2 5.8-5.7 9.7-1.3 11.1 6.9 22.5 21 32 14.1 9.4 33.3 15.6 47.1 16.1h.1c12.4.5 30.3-3.8 43.8-11.4 13.4-7.5 21.3-17.2 20.8-27.1-.3-5-2.3-8.9-6.3-12.8-4-3.9-10.1-7.4-17.4-10.2-14.6-5.7-33.5-8.3-47.6-8.7h-.1c-1.5 0-3-.1-4.6-.1m6.1 13.1c17.2.1 32.3 3 46.8 6.4l-4.2 17.6c-24-5.8-46-9.6-78.7-1.7l-4.2-17.4c13.4-3.3 25.6-4.7 36.8-4.9zm-77.5 27.7c-2 1.5-4 3.1-6 4.9-11 10.1-20.6 25.1-24.9 37-1.5 4.3-2.7 9.5-3.4 15 3.4.5 6.9 1 10.3 1.6 7.7-17.1 18-33.1 29.8-48.4-2.3-3.2-4.3-6.5-5.8-10.1m18.6 23.2c-9.9 12.8-18.3 25.9-24.7 39.5 11.1 3.2 21.3 7.6 29.8 14 1.7 1.3 3.4 2.7 4.9 4.3 5-5.7 8.9-11.7 11.3-17.2 2.8-6.7 4.5-15.8 4.8-25.2-6.6-2.8-13.1-6.3-19.1-10.3-2.4-1.6-4.7-3.3-7-5.1m-104.5 48.5c-7 0-13.7 0-19.9.1-23 .3-54.8 1.5-79.9 7.9-12.5 3.2-23.2 7.7-30.3 13.4-7 5.6-10.6 11.6-10.8 20.5-.2 9.4 3.3 16.1 10.4 22.5 7 6.4 17.9 11.8 30.7 15.8 25.6 8.1 58.3 10.8 81.8 10.9 24.3.1 58.6-2.2 85.5-10.3 13.4-4.1 24.9-9.6 32.4-16.2 7.4-6.6 11.1-13.6 10.8-23.4-.3-9.7-4.3-16-12-21.8-7.7-5.9-19.4-10.4-32.9-13.4-20.3-4.5-44.6-5.8-65.8-6m-22.9 14.5c25.6 0 54.9 2 87.9 5.1l-1.8 18c-43.5-4.2-80.4-6.3-109.2-4.3-28.7 2-48.9 8.3-60.3 18.8l-12.2-13.2c16.2-15.1 40.6-21.4 71.3-23.5 7.7-.6 15.8-.8 24.3-.9m-130.1 50.3c-8.78 14-15.89 30.2-20.02 43-4.95 15.4-9.01 37.6-7.94 56.1.53 9.2 2.36 17.5 5.38 23.4 3.01 5.9 6.73 9.5 12.52 11.3 5.89 1.9 10.96 1.2 16.96-1.9 5.9-3 12.2-8.7 18.1-16 11.8-14.5 21.7-35.2 27.2-50.8 3-8.3 5.9-18.5 8.2-29-4.3-1.1-8.5-2.2-12.6-3.5-8-2.5-15.5-5.5-22.4-9.2-11.5 26.6-21.2 52.8-21.5 81.4l-17.99-.2c.33-33.8 11.99-63.4 24.49-91.6-4.2-3.8-7.7-8.1-10.4-13m274.8 1.4c-2.7 4.5-6.1 8.4-10 11.9-5.3 4.6-11.3 8.5-18 11.7 5.8 27.4 21.6 46.2 38.5 67.3l-14 11.2c-16.2-20-34.1-41.2-41.4-71.6-1.4.4-2.8.9-4.2 1.3-3.5 1.1-7.1 2-10.7 2.9 4.1 18 11.8 36.3 19.4 49.4 7.3 12.6 20.4 28.4 34 38.4 6.8 5 13.7 8.5 19.7 9.8 6 1.4 10.8.9 15.5-1.9 6.1-3.6 9.5-8.7 11.4-16 2-7.2 2.2-16.6.7-26.7-2.9-20.2-12.1-43.2-20.8-58.9v-.1c-4.9-8.8-12-19.3-20.1-28.7"/></symbol><symbol id="desert-eagle" viewBox="0 0 512 512"><path fill="currentColor" d="M440.225 129.522h31.64V115.87H460.02zm-392.75 36.293v-.084a.483.483 0 0 1 0-.084.179.179 0 0 0 0-.126l-.084-.336a13.358 13.358 0 0 0-.913-2.321 22.62 22.62 0 0 0-1.975-3.308 22.389 22.389 0 0 0-1.396-1.775c-.263-.294-.515-.598-.788-.892l-.861-.84a22.861 22.861 0 0 0-1.859-1.618c-.63-.546-1.323-.945-1.995-1.417-.672-.473-1.365-.788-2.027-1.177a16.802 16.802 0 0 0-1.943-.913c-.62-.252-1.197-.546-1.722-.693l-1.375-.441-1.23-.378 1.23-.389 1.438-.441c.567-.189 1.208-.273 1.922-.441a19.627 19.627 0 0 1 2.352-.389c.84-.073 1.765-.22 2.71-.23.945-.011 1.963-.064 2.972 0a31.02 31.02 0 0 1 3.15.314l1.586.263c.525.105 1.05.231 1.554.357 1.05.231 2.048.557 3.035.872.987.315 1.795.65 2.636 1.05a51.393 51.393 0 0 0-5.146 14.555zm158.76 93.671c.167 1.44.377 2.815.64 4.117a29.55 29.55 0 0 0 .966 3.57 15.258 15.258 0 0 0 1.281 2.825 7.193 7.193 0 0 0 .725 1.05 5.954 5.954 0 0 0 .724.84l.672.61c.22.147.42.262.578.357l.493.304-.567-.115c-.189 0-.43-.084-.703-.158l-.903-.367a6.72 6.72 0 0 1-1.05-.599 8.401 8.401 0 0 1-1.187-.872 17.338 17.338 0 0 1-2.457-2.52 32.838 32.838 0 0 1-2.384-3.392 53.451 53.451 0 0 1-2.205-4.032 91.498 91.498 0 0 1-3.844-9.137 143.14 143.14 0 0 1-2.468-7.434 22.82 22.82 0 0 1 11.552-3.833c-.2 3.066-.336 6.3-.326 9.64a84.61 84.61 0 0 0 .462 9.146zm34.654 28.89a9.073 9.073 0 0 0 9.073-9.074v-38.56h5.954v44.525a9.073 9.073 0 0 1-9.073 9.073h-65.381l1.365-5.954h58.051zm236.49-81.837H54.017C44.566 217.04 26 219.886 26 225.44c0 6.816 52.076-8.4 50.973 30.601-1.722 60.782-31.703 60.792-35.988 125.732a13.463 13.463 0 0 0 13.41 14.356h74.402a16.172 16.172 0 0 0 15.847-12.98c10.312-51.162 22.231-98.838 30.916-139.059 3.024-14.019 20.456-20.152 30.538-20.152h236.51a43.37 43.37 0 0 0 34.77-17.4zM101.724 355.962a11.961 11.961 0 1 1-11.961 11.961 11.961 11.961 0 0 1 11.961-11.96zm27.45-70.81a11.961 11.961 0 1 1-11.96-11.961 11.961 11.961 0 0 1 11.971 11.96zM87.17 146.324h385.493A13.379 13.379 0 0 1 486 159.703v20.803a43.57 43.57 0 0 1-.998 9.23H60.15c1.344-5.397 4.043-16.444 4.946-21.307 2.248-12.003 9.903-22.105 22.116-22.105z"/></symbol><symbol id="card-stack" fill="none" viewBox="0 0 15 15"><path fill="currentColor" fill-rule="evenodd" d="M2 3.5a.5.5 0 0 1 .5-.5h10a.5.5 0 0 1 .5.5v6a.5.5 0 0 1-.5.5h-10a.5.5 0 0 1-.5-.5zm0 7.415A1.5 1.5 0 0 1 1 9.5v-6A1.5 1.5 0 0 1 2.5 2h10A1.5 1.5 0 0 1 14 3.5v6a1.5 1.5 0 0 1-1 1.415v.585a1.5 1.5 0 0 1-1.5 1.5h-8A1.5 1.5 0 0 1 2 11.5zM12 11v.5a.5.5 0 0 1-.5.5h-8a.5.5 0 0 1-.5-.5V11z" clip-rule="evenodd"/></symbol><symbol id="camera" fill="none" viewBox="0 0 15 15"><path fill="currentColor" fill-rule="evenodd" d="M2 3a1 1 0 0 0-1 1v7a1 1 0 0 0 1 1h11a1 1 0 0 0 1-1V4a1 1 0 0 0-1-1zM0 4a2 2 0 0 1 2-2h11a2 2 0 0 1 2 2v7a2 2 0 0 1-2 2H2a2 2 0 0 1-2-2zm2 .25A.25.25 0 0 1 2.25 4h2.5a.25.25 0 0 1 .25.25v1.505a.25.25 0 0 1-.25.25h-2.5a.25.25 0 0 1-.25-.25zm10.101 3.334a2.601 2.601 0 1 1-5.202 0 2.601 2.601 0 0 1 5.202 0m1 0a3.601 3.601 0 1 1-7.202 0 3.601 3.601 0 0 1 7.202 0" clip-rule="evenodd"/></symbol></defs></svg>